<svg width="108" height="105" viewBox="0 0 108 105" fill="none" xmlns="http://www.w3.org/2000/svg">
<path d="M19.125 0H88.875C99.45 0 108 8.52564 108 19.0705V85.9295C108 96.4744 99.45 105 88.875 105H19.125C8.55 105 0 96.4744 0 85.9295V19.0705C0 8.52564 8.55 0 19.125 0Z" fill="#F9F6F7"/>
<path fill-rule="evenodd" clip-rule="evenodd" d="M44.0716 61.8291L47.7911 74.2736H58.2389L43.4023 24.1886C43.3747 24.0978 43.3056 24.0349 43.1607 24.0349L30.8843 24C30.4082 24 30.3943 24.2514 30.4358 24.7263C30.5876 26.4512 30.5048 27.4149 30.1528 28.7627L17 74.2806L26.9095 74.2666L29.9941 61.8222L44.0716 61.8291ZM42.2912 52.8066H32.1195L37.0536 32.6455L42.2912 52.8066Z" fill="#6D6273"/>
<path fill-rule="evenodd" clip-rule="evenodd" d="M70.4255 57.7858L89.6027 57.8137C90.8103 56.2494 91.0311 53.3094 90.9966 51.382C90.8655 43.5606 85.7452 36.0743 76.4982 36.0255C60.9715 35.9347 58.0318 55.8025 63.3177 67.2623C64.9808 70.8657 68.3208 73.1563 72.2404 74.2457C74.0277 74.7415 75.9254 74.9929 77.8438 74.9999C81.6392 75.0138 85.4967 74.085 88.5952 72.2973C88.6435 72.2694 88.7263 72.2694 88.7332 72.2135V71.99L88.7263 65.5164C88.7263 65.2231 88.5055 65.0555 88.1742 65.1602C84.2546 66.3544 70.9776 70.1674 70.3634 58.1489C70.3565 58.0581 70.3358 57.7858 70.4255 57.7858ZM80.0383 51.2982H70.2737C70.322 46.0467 72.7028 43.0647 76.3809 43.0508C79.7208 43.0368 81.8463 45.3832 81.9498 51.1725C81.9498 51.4378 81.9498 51.2982 81.9498 51.2982H80.0383Z" fill="#6D6273"/>
</svg>
