<svg width="108" height="105" viewBox="0 0 108 105" fill="none" xmlns="http://www.w3.org/2000/svg">
<path d="M19.125 0H88.875C99.45 0 108 8.52564 108 19.0705V85.9295C108 96.4744 99.45 105 88.875 105H19.125C8.55 105 0 96.4744 0 85.9295V19.0705C0 8.52564 8.55 0 19.125 0Z" fill="#F9F6F7"/>
<path d="M52.335 63H35.595L32.175 73.5448C32.085 73.9487 31.725 74.2179 31.32 74.173H22.86C22.365 74.173 22.23 73.9038 22.365 73.3653L36.855 31.7692C36.99 31.3205 37.125 30.8269 37.305 30.2884C37.485 29.3461 37.575 28.3589 37.575 27.3718C37.53 27.1474 37.71 26.923 37.935 26.8782C37.98 26.8782 38.025 26.8782 38.07 26.8782H49.59C49.95 26.8782 50.13 27.0128 50.175 27.2371L66.6 73.4551C66.735 73.9487 66.6 74.173 66.15 74.173H56.745C56.43 74.2179 56.115 73.9935 56.025 73.6794L52.335 63ZM38.205 53.891H49.635C49.365 52.9487 49.005 51.8269 48.6 50.6602C48.195 49.4487 47.79 48.1474 47.385 46.8012C46.935 45.4102 46.53 44.0641 46.08 42.673C45.63 41.282 45.225 39.9807 44.865 38.6795C44.505 37.423 44.19 36.2564 43.875 35.1795H43.785C43.38 37.1089 42.885 39.0384 42.255 40.9679C41.58 43.1218 40.905 45.3653 40.185 47.6089C39.555 49.8974 38.88 52.0064 38.205 53.891Z" fill="#6D6273"/>
<path d="M76.4099 34.5513C74.9249 34.5961 73.4849 34.0128 72.4049 32.9808C71.3699 31.859 70.8299 30.3782 70.8749 28.8526C70.8299 27.3269 71.4149 25.891 72.4949 24.859C73.5749 23.8269 75.0149 23.2885 76.4999 23.2885C78.2549 23.2885 79.6049 23.8269 80.5949 24.859C81.5849 25.9359 82.1249 27.3718 82.0799 28.8526C82.1249 30.3782 81.5849 31.859 80.5049 32.9808C79.4699 34.0577 77.9399 34.641 76.4099 34.5513ZM71.3699 73.5V38.9487C71.3699 38.5 71.5499 38.3205 71.9549 38.3205H80.8649C81.2699 38.3205 81.4499 38.5449 81.4499 38.9487V73.5C81.4499 73.9936 81.2699 74.2179 80.8649 74.2179H72.0449C71.5949 74.2179 71.3699 73.9487 71.3699 73.5Z" fill="#6D6273"/>
</svg>
