<svg width="100" height="100" viewBox="0 0 100 100" fill="none" xmlns="http://www.w3.org/2000/svg">
<path d="M43.4039 48.4309C45.1636 47.4533 46.5584 45.9875 47.5863 44.0312C48.6143 42.076 49.1288 39.9258 49.1288 37.584C49.1288 35.4245 48.7121 33.4739 47.8788 31.7358C47.0446 29.9964 46.0016 28.6033 44.7516 27.5577C43.5008 26.512 42.0834 25.8252 40.4996 25.4951C38.9158 25.165 36.5128 25 33.2878 25H17V75H30.8678C36.1112 74.9527 39.4189 74.8396 40.7902 74.6572C42.976 74.3617 44.8156 73.5711 46.3063 72.2877C47.7989 71.0031 48.9755 69.2845 49.837 67.1366C50.6985 64.9887 51.1283 62.7773 51.1283 60.5024C51.1283 57.6147 50.4615 55.1032 49.1278 52.9645C47.7951 50.8304 45.8849 49.3173 43.4039 48.4309ZM25.2257 33.3216H29.9508C33.8229 33.3216 36.1667 33.3782 36.983 33.4913C38.3533 33.6967 39.387 34.283 40.0811 35.2468C40.7761 36.2151 41.1231 37.4709 41.1231 39.0163C41.1231 40.631 40.7206 41.9329 39.9146 42.922C39.1086 43.9112 38.0016 44.5079 36.5937 44.7133C35.8158 44.8276 33.8238 44.883 30.6176 44.883H25.2257V33.3216ZM41.4721 64.2719C40.7027 65.3292 39.7067 65.994 38.4841 66.2675C37.6865 66.473 35.8055 66.5745 32.842 66.5745H25.2257V53.2057H31.8685C35.6108 53.2057 38.042 53.4423 39.1641 53.9202C40.2842 54.398 41.142 55.1597 41.7345 56.2054C42.327 57.2511 42.6233 58.5253 42.6233 60.0269C42.6242 61.7997 42.2405 63.2147 41.4721 64.2719Z" fill="#6D6273" stroke="#F9F6F7"/>
<path d="M78.1653 42.1391C75.4961 38.582 71.8554 36.8022 67.2394 36.8022C63.1303 36.8022 59.7322 38.5023 57.0442 41.9014C54.3563 45.3004 53.0142 50.0002 53.0142 56.0031C53.0142 61.0284 54.0356 65.1892 56.0821 68.4866C58.6704 72.6024 62.6638 74.6592 68.0567 74.6592C71.466 74.6592 74.3045 73.7439 76.573 71.9134C78.8415 70.0852 81.7458 66.3029 81.8013 62.9547L73.3753 63.0159C72.9266 64.8348 72.2636 65.45 71.3898 66.2683C70.5114 67.0866 69.4317 67.4964 68.146 67.4964C66.2575 67.4964 64.6793 66.7069 63.4143 65.1268C62.1484 63.5445 61.4872 61.3331 61.4289 58.4926H81.9932C82.107 51.1498 80.8326 45.6986 78.1653 42.1391ZM61.5719 52.626C61.5521 50.0129 62.1268 47.9435 63.2949 46.42C64.463 44.8976 65.9434 44.1359 67.7369 44.1359C69.4101 44.1359 70.8321 44.8572 72.0002 46.3011C73.1683 47.745 73.7825 49.8537 73.8408 52.626H61.5719Z" fill="#6D6273" stroke="#F9F6F7"/>
<path d="M75.8212 27.1377H59.3839V32.0164H75.8212V27.1377Z" fill="#6D6273" stroke="#F9F6F7"/>
<rect x="2" y="2" width="96" height="96" rx="18" stroke="#6D6273" stroke-width="4"/>
</svg>
