<svg width="108" height="105" viewBox="0 0 108 105" fill="none" xmlns="http://www.w3.org/2000/svg">
<path d="M19.125 0H88.875C99.45 0 108 8.52564 108 19.0705V85.9295C108 96.4744 99.45 105 88.875 105H19.125C8.55 105 0 96.4744 0 85.9295V19.0705C0 8.52564 8.55 0 19.125 0Z" fill="#F9F6F7"/>
<g clip-path="url(#clip0_6_911)">
<path d="M53.4039 76.5625C53.4039 82.9687 48.1673 88.1711 41.7116 88.1711C35.2559 88.1711 30.0193 82.9687 30.0193 76.5625C30.0193 70.1563 35.2559 64.954 41.7116 64.954H53.4039V76.5625Z" fill="#6D6273" stroke="#F9F6F7" stroke-width="0.5"/>
<path d="M30.0193 52.8454C30.0193 46.4392 35.2559 41.2368 41.7116 41.2368H53.4039V64.4539H41.7116C35.2559 64.4539 30.0193 59.2516 30.0193 52.8454Z" fill="#6D6273" stroke="#F9F6F7" stroke-width="0.5"/>
<path d="M30.0193 29.1283C30.0193 22.7221 35.2559 17.5198 41.7116 17.5198H53.4039V40.7369H41.7116C35.2559 40.7369 30.0193 35.5345 30.0193 29.1283Z" fill="#6D6273" stroke="#F9F6F7" stroke-width="0.5"/>
<path d="M53.9039 17.5198H65.5962C72.052 17.5198 77.2886 22.7221 77.2886 29.1283C77.2886 35.5345 72.052 40.7369 65.5962 40.7369H53.9039V17.5198Z" fill="#6D6273" stroke="#F9F6F7" stroke-width="0.5"/>
<path d="M77.2886 52.8454C77.2886 59.2516 72.052 64.4539 65.5962 64.4539C59.1405 64.4539 53.9039 59.2516 53.9039 52.8454C53.9039 46.4392 59.1405 41.2368 65.5962 41.2368C72.052 41.2368 77.2886 46.4392 77.2886 52.8454Z" fill="#6D6273" stroke="#F9F6F7" stroke-width="0.5"/>
</g>
<defs>
<clipPath id="clip0_6_911">
<rect width="47.7692" height="71.1513" fill="white" transform="translate(29.7693 17.2698)"/>
</clipPath>
</defs>
</svg>
