<svg width="108" height="105" viewBox="0 0 108 105" fill="none" xmlns="http://www.w3.org/2000/svg">
<path d="M19.125 0H88.875C99.45 0 108 8.52564 108 19.0705V85.9295C108 96.4744 99.45 105 88.875 105H19.125C8.55 105 0 96.4744 0 85.9295V19.0705C0 8.52564 8.55 0 19.125 0Z" fill="#F9F6F7"/>
<path d="M34.6491 35.9095C38.0757 35.9095 40.9462 33.3318 40.9462 29.9534C40.9462 26.5773 38.0757 24 34.6491 24C31.2225 24 28.3528 26.5773 28.3528 29.9534C28.3528 33.3314 31.2225 35.9095 34.6491 35.9095ZM21.5927 67.8001C21.2226 69.3112 21.037 70.9428 21.037 72.2738C21.037 77.5184 24.0001 81 30.2972 81C35.5196 81 39.7535 78.0235 42.802 73.2171L40.9406 80.3871H51.3109L57.2379 57.5709C58.7197 51.7941 61.5902 48.7956 65.9429 48.7956C69.3691 48.7956 71.4987 50.8407 71.4987 54.2168C71.4987 55.195 71.4061 56.2604 71.0356 57.4163L67.9795 67.9037C67.5165 69.4147 67.332 70.9266 67.332 72.3476C67.332 77.3263 70.387 80.9679 76.7767 80.9679C82.2403 80.9679 86.5921 77.5922 89 69.504L84.926 67.9945C82.8885 73.413 81.1289 74.3927 79.7398 74.3927C78.3506 74.3927 77.6097 73.5046 77.6097 71.7281C77.6097 70.9281 77.7958 70.0404 78.0728 68.9715L81.0367 58.7543C81.7772 56.3551 82.0554 54.2277 82.0554 52.273C82.0554 44.6296 77.2397 40.6405 71.4061 40.6405C65.9429 40.6405 60.3863 45.3704 57.6088 50.3484L59.6454 41.4135H43.8115L41.5888 49.2833H48.9972L44.4352 66.8131C40.8528 74.4565 34.2722 74.5805 33.4464 74.4031C32.0902 74.1094 31.2229 73.6152 31.2229 71.924C31.2229 70.9482 31.4082 69.5465 31.8712 67.8565L38.817 41.4135H21.2226L19 49.2833H26.315L21.5927 67.8001Z" fill="#6D6273"/>
</svg>
