<svg width="100" height="100" viewBox="0 0 100 100" fill="none" xmlns="http://www.w3.org/2000/svg">
<rect x="2" y="2" width="96" height="96" rx="18" stroke="#6D6273" stroke-width="4"/>
<path d="M50.0176 25.4034C58.0379 25.4034 58.9877 25.4386 62.1419 25.5792C65.0733 25.7081 66.6562 26.2004 67.7116 26.6107C69.1069 27.1498 70.1153 27.8062 71.1589 28.8494C72.2142 29.9043 72.8591 30.9006 73.3985 32.2954C73.8089 33.3503 74.3013 34.9443 74.4303 37.8629C74.571 41.0275 74.6062 41.9769 74.6062 49.9824C74.6062 57.9996 74.571 58.949 74.4303 62.102C74.3013 65.0322 73.8089 66.6146 73.3985 67.6695C72.8591 69.0643 72.2025 70.0723 71.1589 71.1155C70.1036 72.1703 69.1069 72.815 67.7116 73.3542C66.6562 73.7644 65.0616 74.2567 62.1419 74.3856C58.976 74.5263 58.0262 74.5614 50.0176 74.5614C41.9973 74.5614 41.0475 74.5263 37.8933 74.3856C34.9619 74.2567 33.3789 73.7644 32.3236 73.3542C30.9283 72.815 29.9199 72.1586 28.8763 71.1155C27.821 70.0606 27.1761 69.0643 26.6367 67.6695C26.2263 66.6146 25.7338 65.0205 25.6048 62.102C25.4641 58.9373 25.429 57.9879 25.429 49.9824C25.429 41.9652 25.4641 41.0158 25.6048 37.8629C25.7338 34.9326 26.2263 33.3503 26.6367 32.2954C27.1761 30.9006 27.8327 29.8926 28.8763 28.8494C29.9316 27.7945 30.9283 27.1498 32.3236 26.6107C33.3789 26.2004 34.9736 25.7081 37.8933 25.5792C41.0475 25.4386 41.9973 25.4034 50.0176 25.4034ZM50.0176 20C41.8683 20 40.8482 20.0352 37.6471 20.1758C34.4577 20.3165 32.265 20.8322 30.3654 21.5706C28.3838 22.3442 26.7071 23.3639 25.042 25.04C23.3653 26.7044 22.3451 28.3805 21.5712 30.3497C20.8325 32.2602 20.3166 34.4403 20.1759 37.6284C20.0352 40.84 20 41.8597 20 50.0059C20 58.152 20.0352 59.1717 20.1759 62.3716C20.3166 65.5597 20.8325 67.7515 21.5712 69.6503C22.3451 71.6312 23.3653 73.3073 25.042 74.9717C26.7071 76.6361 28.3838 77.6675 30.3537 78.4294C32.265 79.1678 34.446 79.6835 37.6353 79.8242C40.8364 79.9648 41.8566 80 50.0059 80C58.1552 80 59.1753 79.9648 62.3764 79.8242C65.5658 79.6835 67.7585 79.1678 69.658 78.4294C71.6279 77.6675 73.3047 76.6361 74.9697 74.9717C76.6347 73.3073 77.6666 71.6312 78.4288 69.662C79.1675 67.7515 79.6834 65.5714 79.8241 62.3833C79.9648 59.1834 80 58.1637 80 50.0176C80 41.8715 79.9648 40.8517 79.8241 37.6519C79.6834 34.4638 79.1675 32.2719 78.4288 30.3731C77.6901 28.3805 76.6699 26.7044 74.9932 25.04C73.3281 23.3757 71.6514 22.3442 69.6815 21.5823C67.7702 20.8439 65.5892 20.3282 62.3998 20.1875C59.187 20.0352 58.1669 20 50.0176 20Z" fill="#6D6273"/>
<path d="M50.0178 34.5928C41.505 34.5928 34.5986 41.4965 34.5986 50.0059C34.5986 58.5154 41.505 65.4191 50.0178 65.4191C58.5306 65.4191 65.437 58.5154 65.437 50.0059C65.437 41.4965 58.5306 34.5928 50.0178 34.5928ZM50.0178 60.004C44.4951 60.004 40.0159 55.5266 40.0159 50.0059C40.0159 44.4853 44.4951 40.0079 50.0178 40.0079C55.5406 40.0079 60.0198 44.4853 60.0198 50.0059C60.0198 55.5266 55.5406 60.004 50.0178 60.004Z" fill="#6D6273"/>
<path d="M69.6448 33.9841C69.6448 35.9767 68.0267 37.5825 66.0451 37.5825C64.0517 37.5825 62.4453 35.965 62.4453 33.9841C62.4453 31.9915 64.0634 30.3857 66.0451 30.3857C68.0267 30.3857 69.6448 32.0032 69.6448 33.9841Z" fill="#6D6273"/>
</svg>
