<svg width="27" height="30" viewBox="0 0 27 30" fill="none" xmlns="http://www.w3.org/2000/svg">
<path d="M11.48 0.68V1.48C10.6 1.50667 9.93333 1.61333 9.48 1.8C9.02667 1.96 8.72 2.28 8.56 2.76C8.4 3.21333 8.32 3.93333 8.32 4.92V24.76C8.32 25.72 8.4 26.44 8.56 26.92C8.72 27.4 9.02667 27.72 9.48 27.88C9.93333 28.04 10.6 28.1467 11.48 28.2V29C10.84 28.9467 10.0267 28.92 9.04 28.92C8.08 28.8933 7.09333 28.88 6.08 28.88C4.96 28.88 3.90667 28.8933 2.92 28.92C1.96 28.92 1.17333 28.9467 0.56 29V28.2C1.46667 28.1467 2.14667 28.04 2.6 27.88C3.05333 27.72 3.34667 27.4 3.48 26.92C3.64 26.44 3.72 25.72 3.72 24.76V4.92C3.72 3.93333 3.64 3.21333 3.48 2.76C3.34667 2.28 3.04 1.96 2.56 1.8C2.10667 1.61333 1.44 1.50667 0.56 1.48V0.68C1.17333 0.706666 1.96 0.733332 2.92 0.759999C3.90667 0.786665 4.96 0.799998 6.08 0.799998C7.09333 0.799998 8.08 0.786665 9.04 0.759999C10.0267 0.733332 10.84 0.706666 11.48 0.68ZM10.6 13.92C12.2533 13.92 13.7467 14.08 15.08 14.4C16.44 14.6933 17.5733 15.2533 18.48 16.08C19.4133 16.88 20.0533 18.0667 20.4 19.64L21.56 24.8C21.8267 25.9733 22.08 26.8 22.32 27.28C22.5867 27.7333 23 27.96 23.56 27.96C23.9867 27.9333 24.3333 27.8133 24.6 27.6C24.8933 27.36 25.2 27.04 25.52 26.64L26.08 27.08C25.52 27.8533 24.8933 28.4667 24.2 28.92C23.5067 29.3467 22.6 29.56 21.48 29.56C20.36 29.56 19.3867 29.28 18.56 28.72C17.76 28.16 17.1733 27 16.8 25.24L15.72 19.88C15.48 18.7867 15.1867 17.8533 14.84 17.08C14.52 16.3067 14.0133 15.72 13.32 15.32C12.6267 14.8933 11.6133 14.68 10.28 14.68H7.48V13.92H10.6ZM8.28 14.68V13.92C9.4 13.8933 10.3733 13.64 11.2 13.16C12.0267 12.6533 12.7867 11.9867 13.48 11.16L16.8 6.96C17.7333 5.81333 18.3333 4.84 18.6 4.04C18.8667 3.21333 18.8 2.58667 18.4 2.16C18 1.73333 17.2533 1.50667 16.16 1.48V0.68C16.72 0.706666 17.28 0.733332 17.84 0.759999C18.4 0.759999 18.96 0.773332 19.52 0.799998C20.08 0.799998 20.64 0.799998 21.2 0.799998C21.92 0.799998 22.5733 0.786665 23.16 0.759999C23.7733 0.733332 24.2933 0.706666 24.72 0.68V1.48C23.8667 1.61333 23.0267 1.92 22.2 2.4C21.3733 2.88 20.52 3.64 19.64 4.68L11.56 14.68H8.28Z" fill="#F9F6F7"/>
</svg>
