<svg width="108" height="105" viewBox="0 0 108 105" fill="none" xmlns="http://www.w3.org/2000/svg">
<path d="M19.125 0H88.875C99.45 0 108 8.52564 108 19.0705V85.9295C108 96.4744 99.45 105 88.875 105H19.125C8.55 105 0 96.4744 0 85.9295V19.0705C0 8.52564 8.55 0 19.125 0Z" fill="#F9F6F7"/>
<path d="M24.3 73.6346V27.4616C24.3 27.1474 24.435 26.968 24.75 26.968C25.515 26.968 26.235 26.968 27.27 26.9231C28.35 26.8782 29.475 26.8782 30.69 26.8333C31.905 26.7885 33.2101 26.7885 34.6051 26.7436C36.0001 26.6987 37.3501 26.6987 38.7001 26.6987C42.3901 26.6987 45.4501 27.1474 47.9701 28.0898C50.2201 28.8526 52.2901 30.109 54.0001 31.7692C55.4401 33.2051 56.5651 34.9551 57.2851 36.8846C57.9601 38.7692 58.3201 40.6987 58.3201 42.718C58.3201 46.5769 57.4201 49.7628 55.6201 52.2757C53.8201 54.7885 51.3001 56.6731 48.3751 57.75C45.3151 58.8718 41.9401 59.2757 38.2501 59.2757C37.1701 59.2757 36.4501 59.2757 36.0001 59.2308C35.5501 59.1859 34.92 59.1859 34.065 59.1859V73.5898C34.11 73.9039 33.885 74.1731 33.57 74.218C33.5251 74.218 33.48 74.218 33.39 74.218H24.84C24.48 74.218 24.3 74.0385 24.3 73.6346ZM34.1101 35.6282V50.7051C34.7401 50.75 35.325 50.7949 35.865 50.7949H38.2501C40.0051 50.7949 41.7601 50.5257 43.4251 49.9872C44.8651 49.5833 46.1251 48.7308 47.1151 47.609C48.0601 46.4872 48.5101 44.9616 48.5101 42.9872C48.5551 41.5962 48.1951 40.2051 47.4751 38.9936C46.7101 37.8269 45.6301 36.9295 44.3251 36.4359C42.6601 35.7628 40.8601 35.4936 39.015 35.5385C37.845 35.5385 36.8101 35.5385 35.9551 35.5833C35.0551 35.5385 34.4251 35.5833 34.1101 35.6282Z" fill="#6D6273"/>
<path d="M86.4 47.9681C85.05 47.2501 83.61 46.7565 82.08 46.4424C80.415 46.0834 78.75 45.8591 77.04 45.8591C76.14 45.8142 75.195 45.9488 74.34 46.1732C73.755 46.3078 73.26 46.6219 72.945 47.0706C72.72 47.4296 72.585 47.8783 72.585 48.2822C72.585 48.686 72.765 49.0898 73.035 49.4488C73.44 49.9424 73.98 50.3463 74.565 50.6604C75.6 51.1988 76.68 51.6924 77.76 52.1411C80.19 52.9488 82.53 54.0706 84.69 55.4168C86.175 56.3591 87.39 57.6155 88.245 59.1411C88.965 60.577 89.325 62.1475 89.28 63.7629C89.325 65.8719 88.695 67.9809 87.525 69.7309C86.265 71.5257 84.51 72.9168 82.485 73.7245C80.28 74.6668 77.58 75.1604 74.34 75.1604C72.27 75.1604 70.245 74.9809 68.22 74.577C66.645 74.3078 65.07 73.8142 63.63 73.1411C63.315 72.9616 63.09 72.6475 63.135 72.2886V64.4809C63.135 64.3463 63.18 64.1668 63.315 64.077C63.45 63.9873 63.585 64.0322 63.72 64.1219C65.475 65.1539 67.32 65.8719 69.3 66.3206C71.01 66.7693 72.81 66.9937 74.61 66.9937C76.32 66.9937 77.535 66.7693 78.345 66.3655C79.065 66.0514 79.56 65.2886 79.56 64.4809C79.56 63.8527 79.2 63.2693 78.48 62.686C77.76 62.1027 76.275 61.4296 74.07 60.577C71.775 59.7693 69.66 58.6924 67.68 57.3463C66.285 56.3591 65.115 55.0578 64.26 53.5322C63.54 52.0963 63.18 50.5257 63.225 48.9552C63.225 47.0257 63.765 45.186 64.755 43.5257C65.88 41.7309 67.545 40.295 69.48 39.3975C71.595 38.3206 74.25 37.827 77.445 37.827C79.29 37.827 81.18 37.9616 83.025 38.2309C84.375 38.4104 85.68 38.7693 86.895 39.2629C87.075 39.3078 87.255 39.4873 87.345 39.6668C87.39 39.8463 87.435 40.0257 87.435 40.2052V47.5193C87.435 47.6988 87.345 47.8783 87.21 47.9681C86.805 48.0578 86.58 48.0578 86.4 47.9681Z" fill="#6D6273"/>
</svg>
