<svg width="100" height="100" viewBox="0 0 100 100" fill="none" xmlns="http://www.w3.org/2000/svg">
<rect x="2" y="2" width="96" height="96" rx="18" stroke="#6D6273" stroke-width="4"/>
<mask id="path-2-outside-1_69_9" maskUnits="userSpaceOnUse" x="20" y="20" width="60" height="61" fill="black">
<rect fill="white" x="20" y="20" width="60" height="61"/>
<path fill-rule="evenodd" clip-rule="evenodd" d="M28.4372 46.5247C41.859 39.4685 50.8089 34.8167 55.287 32.5691C68.073 26.1519 70.7298 25.0372 72.4615 25.0004C72.8423 24.9923 73.6939 25.1062 74.2455 25.6463C74.7113 26.1024 74.8395 26.7184 74.9008 27.1508C74.9621 27.5832 75.0385 28.5682 74.9778 29.3379C74.2849 38.1225 71.2868 59.4405 69.7616 69.2795C69.1162 73.4427 67.8454 74.8386 66.6152 74.9752C63.9415 75.2721 61.9112 72.8431 59.3217 70.7948C55.2695 67.5896 52.9803 65.5944 49.047 62.4667C44.5013 58.8521 47.4481 56.8654 50.0386 53.6187C50.7166 52.769 62.4968 39.8396 62.7248 38.6667C62.7533 38.52 62.7798 37.9732 62.5106 37.6845C62.2414 37.3958 61.844 37.4945 61.5573 37.573C61.1509 37.6843 54.6775 42.8473 42.1372 53.0618C40.2997 54.5843 38.6354 55.3261 37.1442 55.2872C35.5004 55.2444 32.3382 54.1657 29.9874 53.2436C27.1041 52.1127 24.8126 51.5147 25.0121 49.594C25.116 48.5936 26.2578 47.5705 28.4372 46.5247Z"/>
</mask>
<path d="M28.4372 46.5247L30.6003 51.0326L30.6829 50.9929L30.7639 50.9503L28.4372 46.5247ZM55.287 32.5691L57.5299 37.0379L55.287 32.5691ZM72.4615 25.0004L72.3552 20.0015L72.4615 25.0004ZM74.2455 25.6463L77.7436 22.0737V22.0737L74.2455 25.6463ZM74.9008 27.1508L69.9503 27.8529L69.9503 27.8529L74.9008 27.1508ZM74.9778 29.3379L79.9623 29.731V29.731L74.9778 29.3379ZM69.7616 69.2795L74.7026 70.0454L69.7616 69.2795ZM66.6152 74.9752L66.0634 70.0058L66.6152 74.9752ZM59.3217 70.7948L56.2198 74.7163L59.3217 70.7948ZM49.047 62.4667L45.935 66.3802L49.047 62.4667ZM50.0386 53.6187L53.947 56.7372L50.0386 53.6187ZM62.7248 38.6667L67.6329 39.6208L67.6329 39.6208L62.7248 38.6667ZM61.5573 37.573L62.878 42.3954H62.878L61.5573 37.573ZM42.1372 53.0618L38.9794 49.1851L38.9632 49.1983L38.947 49.2117L42.1372 53.0618ZM37.1442 55.2872L37.0139 60.2855L37.1442 55.2872ZM29.9874 53.2436L31.8132 48.5889L29.9874 53.2436ZM25.0121 49.594L29.9853 50.1107L25.0121 49.594ZM30.7639 50.9503C44.1929 43.8904 53.101 39.2607 57.5299 37.0379L53.0442 28.1004C48.5168 30.3726 39.5251 35.0467 26.1106 42.099L30.7639 50.9503ZM57.5299 37.0379C63.9435 33.8189 67.6867 31.9962 70.0251 30.9723C72.4801 29.8973 72.7792 29.9948 72.5677 29.9993L72.3552 20.0015C70.412 20.0428 68.5169 20.7161 66.0141 21.812C63.3947 22.9589 59.4165 24.9022 53.0442 28.1004L57.5299 37.0379ZM72.5677 29.9993C72.2799 30.0054 72.0836 29.9738 71.9045 29.9221C71.7295 29.8717 71.2472 29.7082 70.7475 29.2189L77.7436 22.0737C76.6922 21.0442 75.5084 20.5538 74.6744 20.3134C73.8364 20.0718 73.0239 19.9873 72.3552 20.0015L72.5677 29.9993ZM70.7475 29.2189C70.3271 28.8073 70.1249 28.3843 70.0347 28.1401C69.9515 27.9151 69.9388 27.7714 69.9503 27.8529L79.8512 26.4487C79.7673 25.8567 79.4744 23.7684 77.7436 22.0737L70.7475 29.2189ZM69.9503 27.8529C69.9499 27.8502 69.9519 27.8639 69.9554 27.8952C69.9588 27.9253 69.9629 27.9653 69.9673 28.014C69.9761 28.1124 69.9847 28.2315 69.9909 28.3593C70.0045 28.6413 70.0007 28.8497 69.9933 28.9447L79.9623 29.731C80.0602 28.49 79.9465 27.1206 79.8512 26.4487L69.9503 27.8529ZM69.9933 28.9447C69.3171 37.517 66.348 58.6604 64.8206 68.5135L74.7026 70.0454C76.2256 60.2206 79.2527 38.728 79.9623 29.731L69.9933 28.9447ZM64.8206 68.5135C64.6896 69.3589 64.5412 69.9668 64.4071 70.3875C64.3408 70.5951 64.282 70.7449 64.2368 70.8467C64.2144 70.8971 64.1963 70.9337 64.1834 70.9582C64.1706 70.9828 64.1636 70.994 64.1637 70.9938C64.1638 70.9937 64.1716 70.9811 64.1885 70.9585C64.2053 70.9358 64.2319 70.9023 64.2693 70.8609C64.3444 70.7776 64.464 70.6618 64.6355 70.5396C65.0046 70.277 65.4981 70.0685 66.0634 70.0058L67.167 79.9447C69.6954 79.6639 71.5239 78.0916 72.6517 76.2808C73.7093 74.583 74.3308 72.4435 74.7026 70.0454L64.8206 68.5135ZM66.0634 70.0058C66.5163 69.9555 66.5921 70.2268 65.8285 69.6854C65.452 69.4185 65.0258 69.0668 64.4319 68.5577C63.8885 68.0919 63.1708 67.4644 62.4235 66.8733L56.2198 74.7163C56.7673 75.1494 57.2745 75.5936 57.9237 76.1501C58.5223 76.6632 59.2563 77.2842 60.0453 77.8435C61.6126 78.9545 64.0404 80.2919 67.167 79.9447L66.0634 70.0058ZM62.4235 66.8733C60.4361 65.3012 58.8809 64.0259 57.314 62.7385C55.7469 61.4508 54.1615 60.1456 52.1589 58.5531L45.935 66.3802C47.8657 67.9155 49.3917 69.1717 50.9655 70.4648C52.5396 71.7583 54.1551 73.0832 56.2198 74.7163L62.4235 66.8733ZM52.1589 58.5531C51.3297 57.8938 51.3688 57.7068 51.5087 58.0302C51.5961 58.2321 51.676 58.5283 51.6798 58.8811C51.6835 59.2238 51.614 59.4806 51.5659 59.6129C51.5239 59.7285 51.5033 59.7355 51.5844 59.6103C51.6658 59.4847 51.8008 59.2996 52.0285 59.0201C52.2612 58.7343 52.5172 58.4383 52.8587 58.0407C53.1808 57.6658 53.5618 57.2199 53.947 56.7372L46.1303 50.5003C45.8678 50.8292 45.5901 51.1557 45.2729 51.5249C44.9751 51.8716 44.6114 52.2916 44.2747 52.7052C43.6461 53.477 42.7168 54.6856 42.1676 56.1966C41.5332 57.9418 41.4483 59.9613 42.3311 62.0015C43.1161 63.8155 44.4914 65.2323 45.935 66.3802L52.1589 58.5531ZM53.947 56.7372C53.9291 56.7596 54.0733 56.5906 54.5109 56.0968C54.8923 55.6664 55.4027 55.0941 56.0072 54.4159C57.2103 53.0663 58.7652 51.3206 60.3086 49.5618C61.8456 47.8104 63.4014 46.0113 64.5986 44.5602C65.1915 43.8415 65.7393 43.1565 66.1639 42.5817C66.3718 42.3002 66.5992 41.9793 66.7995 41.6568C66.8525 41.5714 67.4192 40.7204 67.6329 39.6208L57.8167 37.7126C57.9365 37.0962 58.149 36.674 58.1846 36.6016C58.2531 36.4624 58.3044 36.3812 58.3049 36.3804C58.3072 36.3765 58.2575 36.4545 58.1201 36.6405C57.8542 37.0006 57.439 37.5247 56.8849 38.1964C55.7879 39.526 54.3136 41.2323 52.7922 42.9661C49.9109 46.2496 46.5612 49.9602 46.1303 50.5003L53.947 56.7372ZM67.6329 39.6208C67.7537 38.9997 67.7753 38.2973 67.692 37.6195C67.6177 37.0141 67.3609 35.5546 66.1676 34.2748L58.8536 41.0942C58.3609 40.5659 58.1055 40.0332 57.9738 39.6782C57.8411 39.3204 57.7894 39.0237 57.7666 38.8383C57.7429 38.6454 57.7393 38.4796 57.7434 38.3425C57.7466 38.2366 57.7578 38.0155 57.8167 37.7126L67.6329 39.6208ZM66.1676 34.2748C64.852 32.8638 63.2179 32.5019 62.0877 32.4913C61.1336 32.4823 60.3359 32.7234 60.2366 32.7506L62.878 42.3954C63.0655 42.3441 62.6098 42.4966 61.9934 42.4908C61.2008 42.4833 59.8999 42.2164 58.8536 41.0942L66.1676 34.2748ZM60.2366 32.7506C59.632 32.9162 59.1869 33.1654 59.1136 33.2053C58.9477 33.2954 58.8096 33.3812 58.7217 33.4373C58.5409 33.5526 58.3629 33.6767 58.2136 33.7834C57.9047 34.0041 57.5173 34.2949 57.0729 34.6356C56.1741 35.3246 54.9051 36.3235 53.2798 37.6197C50.0224 40.2177 45.253 44.0751 38.9794 49.1851L45.2949 56.9385C51.5617 51.8339 56.2991 48.0027 59.5151 45.4377C61.1266 44.1525 62.3358 43.2013 63.157 42.5718C63.5725 42.2532 63.8555 42.0425 64.0274 41.9197C64.1186 41.8546 64.1335 41.8465 64.0983 41.8689C64.0832 41.8785 64.0061 41.9278 63.8893 41.9912C63.8651 42.0044 63.4572 42.2368 62.878 42.3954L60.2366 32.7506ZM38.947 49.2117C38.2771 49.7668 37.7863 50.0545 37.4753 50.1931C37.176 50.3266 37.1285 50.2851 37.2746 50.2889L37.0139 60.2855C40.2576 60.3701 43.0857 58.7692 45.3273 56.9119L38.947 49.2117ZM37.2746 50.2889C37.306 50.2897 37.1415 50.2833 36.7159 50.1916C36.3243 50.1072 35.8393 49.9789 35.279 49.8094C34.1574 49.47 32.9116 49.0197 31.8132 48.5889L28.1617 57.8983C29.4141 58.3896 30.9247 58.9396 32.3828 59.3808C33.6993 59.7792 35.4623 60.2451 37.0139 60.2855L37.2746 50.2889ZM31.8132 48.5889C31.4221 48.4354 31.0437 48.2922 30.7115 48.1661C30.3684 48.0359 30.0784 47.9255 29.8111 47.8194C29.2462 47.595 28.9831 47.4662 28.8668 47.3983C28.7369 47.3223 29.0889 47.4914 29.4455 48.0203C29.6397 48.3083 29.8093 48.6652 29.9089 49.0749C30.0076 49.4809 30.0135 49.8396 29.9853 50.1107L20.0389 49.0774C19.8725 50.6789 20.2414 52.257 21.1542 53.6108C21.9745 54.8273 23.0422 55.5767 23.8206 56.0317C25.1757 56.8237 27.1505 57.5017 28.1617 57.8983L31.8132 48.5889ZM29.9853 50.1107C29.921 50.7303 29.7095 51.1894 29.5426 51.4606C29.3851 51.7164 29.2581 51.8225 29.2832 51.8C29.3037 51.7817 29.4079 51.6939 29.641 51.5487C29.8698 51.4061 30.1837 51.2325 30.6003 51.0326L26.2741 42.0168C24.9734 42.641 23.6746 43.3983 22.6095 44.3528C21.5831 45.2725 20.272 46.8331 20.0389 49.0774L29.9853 50.1107Z" fill="#6D6273" mask="url(#path-2-outside-1_69_9)"/>
</svg>
