<svg width="108" height="105" viewBox="0 0 108 105" fill="none" xmlns="http://www.w3.org/2000/svg">
<path d="M19.125 0H88.875C99.45 0 108 8.52564 108 19.0705V85.9295C108 96.4744 99.45 105 88.875 105H19.125C8.55 105 0 96.4744 0 85.9295V19.0705C0 8.52564 8.55 0 19.125 0Z" fill="#F9F6F7"/>
<path fill-rule="evenodd" clip-rule="evenodd" d="M50.0599 77.168H56.0372V48.4766L50.0599 46.538V77.168Z" fill="#6D6273"/>
<path fill-rule="evenodd" clip-rule="evenodd" d="M67.5934 35.811C67.527 39.6883 66.2651 41.6915 63.6085 41.6915C60.8854 41.6915 58.096 40.2699 54.3768 38.5251C49.3291 36.1988 46.9383 35.5526 43.8167 35.5526C38.7028 35.5526 34.7178 39.6883 34.9836 46.7966H39.4333C39.4997 42.2731 41.1602 40.2699 43.8167 40.2699C46.4733 40.2699 49.2627 41.6269 52.7163 43.3071C57.8304 45.5688 60.487 46.6028 63.4757 46.6028C68.0584 46.6028 72.3089 44.2117 71.9768 35.811H67.5934Z" fill="#6D6273"/>
<path fill-rule="evenodd" clip-rule="evenodd" d="M54.1111 13C31.4635 13 13 30.9645 13 53C13 75.0355 31.4635 93 54.1111 93C76.7587 93 95.2222 75.0355 95.2222 53C95.2222 30.9645 76.8251 13 54.1111 13ZM54.1111 90.4152C32.9246 90.4152 15.6566 73.6785 15.6566 53C15.6566 32.3215 32.9246 15.5848 54.1111 15.5848C75.2976 15.5848 92.5656 32.3861 92.5656 53C92.5656 73.6139 75.2976 90.4152 54.1111 90.4152Z" fill="#6D6273"/>
</svg>
